<svg xmlns="http://www.w3.org/2000/svg" viewBox="0 0 128 128">
  <path fill="#000" d="M113.623 109.886c-2.064-3.126-3.829-8.28-4.607-12.308-.782-4.04-.812-13.036-3.15-16.877-1.803-2.962-5.365-4.725-7.34-7.056-.873-1.03-1.482-2.162-1.817-3.582-.39-1.65-.224-3.773-.618-5.726-.79-3.918-2.093-7.072-4.227-9.194-1.27-1.263-3.834-2.89-6.323-2.855-.382.006-.76.063-1.14.12.123-1.162.2-2.375.2-3.668 0-5.84-1.227-12.617-3.727-17.04-1.322-2.34-3.195-4.47-5.63-5.468-.628-.257-1.27-.404-1.92-.432-.037-.002-.073-.002-.109-.002-.95 0-1.934.348-2.957 1.116-1.253-.72-2.636-1.083-4.108-1.083-3.065 0-6.51 1.555-9.453 4.25-.197-.055-.398-.088-.607-.098-.053-.002-.106-.003-.16-.003-1.96 0-4.088 1.22-5.926 3.406-2.378 2.83-4.216 6.927-4.823 11.093-.72 4.94-.38 11.413 1.174 15.72-2.333-.267-4.673.49-6.618 2.097-2.298 1.9-4.055 4.82-5.108 8.358-1.16 3.894-1.568 8.88-1.093 13.07.328 2.906 1.044 5.614 2.142 7.65-1.197.812-2.32 1.916-3.248 3.352-1.924 2.976-3.073 6.915-3.073 11.39 0 1.81.173 3.71.55 5.66.48 2.48 1.26 4.69 2.28 6.54H24.07c-.753 0-1.373.34-1.758.897-.384.558-.534 1.237-.423 1.973.22 1.475 1.33 2.54 2.66 2.54h77.704c1.77 0 3.458-.89 4.594-2.42 1.136-1.534 1.676-3.59 1.472-5.62-.22-2.205-1.05-4.192-2.252-5.87-.57-.795-1.222-1.498-1.947-2.092.652-.27 1.212-.645 1.676-1.103.87-.86 1.44-1.98 1.69-3.29.21-1.095.2-2.34-.01-3.69-.126-.793-.573-1.41-1.182-1.754-.11-.063-.224-.115-.342-.156l-.33-.1z"/>
  <path fill="#fff" d="M81.724 31.206c1.502.62 2.92 2.316 3.978 4.19 2.235 3.956 3.377 10.088 3.377 15.374 0 2.31-.18 4.42-.508 6.21.498.232 1.056.558 1.5.824l.226.136c.45.27.94.56 1.37.868 1.614 1.142 2.65 2.33 3.353 4.07l.066.16c.48 1.2.75 2.643.75 4.384 0 1.193-.112 2.46-.35 3.83-.3 1.75-.785 3.36-1.475 4.775l-.007.016-.008.015c-.903 1.87-2.146 3.386-3.765 4.448l-.266.174c-1.09.712-2.326 1.273-3.77 1.612-.122.03-.248.056-.377.078.36 1.95.56 3.972.56 5.963 0 4.236-.76 8.298-2.278 11.396l-.015.03-.015.03c-.738 1.46-1.643 2.637-2.73 3.522l-.038.03-.04.03c-.988.738-2.118 1.207-3.444 1.207-.896 0-1.84-.21-2.864-.646l-.05-.02-.05-.023c-3.453-1.59-6.02-4.49-7.777-8.048-1.644-3.332-2.62-7.334-2.905-11.28-.75.075-1.51.115-2.283.115-.698 0-1.4-.034-2.105-.1-.28 4.01-1.276 8.1-2.96 11.486-1.792 3.597-4.396 6.514-7.91 8.046-1.007.44-1.94.65-2.82.65-1.345 0-2.493-.48-3.494-1.24-1.085-.91-1.992-2.13-2.736-3.63l-.005-.01-.005-.01c-1.454-3.05-2.202-6.926-2.202-11.01 0-1.88.17-3.787.5-5.64-1.64-.36-3.044-.99-4.27-1.82l-.03-.02-.03-.02c-1.627-1.13-2.882-2.695-3.786-4.62-.67-1.413-1.16-3.02-1.454-4.78-.23-1.34-.343-2.583-.343-3.77 0-1.855.314-3.38.84-4.62.68-1.67 1.675-2.835 3.27-3.96.44-.31.956-.614 1.425-.89l.222-.132c.392-.232.87-.515 1.294-.73-.333-1.79-.52-3.91-.52-6.22 0-5.286 1.15-11.42 3.386-15.374 1.058-1.873 2.478-3.573 3.99-4.193.46-.19.902-.278 1.328-.278 1.06 0 1.99.55 2.755 1.478.27-.28.553-.55.847-.808 2.49-2.18 5.325-3.382 7.71-3.382 1.232 0 2.372.29 3.36.89l.037.023.038.022c.42.238.773.508 1.074.815.277-.258.574-.49.888-.692 1.03-.66 2.17-.99 3.39-.99 1.6 0 3.35.58 5.09 1.69.29-.24.59-.455.91-.636.95-.54 1.9-.793 2.81-.793.42 0 .83.05 1.22.157.54.15 1.06.406 1.55.764z"/>
  <path fill="#000" d="M67.773 89.17c.478-.02.95-.057 1.417-.107l.02.08c.24.978.56 1.924.955 2.825l-.03.006c-.75.134-1.516.206-2.29.206-.844 0-1.68-.086-2.5-.248l-.028-.007c.412-.91.743-1.87.99-2.86l.02-.06c.47.074.95.126 1.44.156l.006.008z"/>
  <path fill="#e8b31c" d="M68.146 85.968c-5.163 0-9.352-4.186-9.352-9.345 0-5.16 4.19-9.347 9.352-9.347 5.16 0 9.35 4.187 9.35 9.347 0 5.16-4.19 9.345-9.35 9.345zm-17.81-34.286c-1.314.063-2.383 1.19-2.383 2.54 0 1.407 1.143 2.55 2.553 2.55s2.555-1.143 2.555-2.55c0-1.41-1.145-2.553-2.555-2.553-.057 0-.113.004-.17.007v.006zm32.02.006c-.06-.003-.116-.006-.175-.006-1.41 0-2.554 1.143-2.554 2.553s1.144 2.55 2.554 2.55c1.41 0 2.553-1.14 2.553-2.55 0-1.35-1.066-2.47-2.377-2.54v-.006z"/>
  <path fill="#d6a312" d="M58.91 76.627c0 5.16 4.13 9.34 9.24 9.34 5.102 0 9.236-4.18 9.236-9.34 0-.556-.05-1.1-.144-1.63-.72.06-1.522.23-2.178.23-3.102 0-5.818-1.55-7.418-3.89-.152-.228-.29-.46-.416-.7-.69.41-1.34.87-1.93 1.42-1.75 1.63-3.23 3.93-4.21 6.52-.112-.667-.17-1.282-.17-1.95H58.9z"/>
  <path fill="#fff" d="M68.176 79.282c-.892 0-1.62.69-1.68 1.566h3.36c-.062-.877-.79-1.567-1.68-1.567z"/>
</svg>
